<svg xmlns="http://www.w3.org/2000/svg" viewBox="0 0 880 300" font-family="'Inter', system-ui, sans-serif" role="img">
<defs><marker id="a" viewBox="0 0 10 10" refX="8.5" refY="5" markerWidth="9" markerHeight="9" orient="auto-start-reverse"><path d="M0,0 L10,5 L0,10 z" fill="#555"/></marker><marker id="am" viewBox="0 0 10 10" refX="8.5" refY="5" markerWidth="9" markerHeight="9" orient="auto-start-reverse"><path d="M0,0 L10,5 L0,10 z" fill="#0e7490"/></marker></defs>
<rect x="10" y="50" width="250" height="230" rx="12" fill="#ecfeff" stroke="#ddd"/>
<text x="22" y="70" font-size="12" font-weight="700" fill="#888">Order Context</text>
<rect x="300" y="50" width="260" height="230" rx="12" fill="#fff8ef" stroke="#ddd"/>
<text x="312" y="70" font-size="12" font-weight="700" fill="#888">Anti-Corruption Layer</text>
<rect x="600" y="50" width="270" height="230" rx="12" fill="#f0fdf4" stroke="#ddd"/>
<text x="612" y="70" font-size="12" font-weight="700" fill="#888">Inventory Context</text>
<rect x="30" y="90" width="210" height="40" rx="9" fill="#ecfeff" stroke="#0891b2" stroke-width="2"/>
<text x="135.0" y="108.0" font-size="13.5" font-weight="700" fill="#111111" text-anchor="middle">Sku</text>
<text x="135.0" y="125.0" font-size="11.5" fill="#555555" text-anchor="middle">SKU-LAPTOP-PRO</text>
<rect x="30" y="145" width="210" height="40" rx="9" fill="#ecfeff" stroke="#0891b2" stroke-width="2"/>
<text x="135.0" y="163.0" font-size="13.5" font-weight="700" fill="#111111" text-anchor="middle">LineItem</text>
<text x="135.0" y="180.0" font-size="11.5" fill="#555555" text-anchor="middle">sku + quantity + unitPrice</text>
<rect x="30" y="200" width="210" height="40" rx="9" fill="#ecfeff" stroke="#0891b2" stroke-width="2"/>
<text x="135.0" y="218.0" font-size="13.5" font-weight="700" fill="#111111" text-anchor="middle">OrderId</text>
<text x="135.0" y="235.0" font-size="11.5" fill="#555555" text-anchor="middle">ord_xxx</text>
<rect x="330" y="110" width="200" height="80" rx="9" fill="#111111" stroke="#111111" stroke-width="2"/>
<text x="430.0" y="140.5" font-size="13.5" font-weight="700" fill="#ffffff" text-anchor="middle">ACL Adapter</text>
<text x="430.0" y="157.5" font-size="11.5" fill="#dddddd" text-anchor="middle">Order.Acl.</text>
<text x="430.0" y="172.5" font-size="11.5" fill="#dddddd" text-anchor="middle">InventoryReserve</text>
<rect x="620" y="90" width="230" height="40" rx="9" fill="#ffffff" stroke="#111111" stroke-width="2"/>
<text x="735.0" y="108.0" font-size="13.5" font-weight="700" fill="#111111" text-anchor="middle">ProductCode</text>
<text x="735.0" y="125.0" font-size="11.5" fill="#555555" text-anchor="middle">PROD-LAPTOP-PRO</text>
<rect x="620" y="145" width="230" height="40" rx="9" fill="#ffffff" stroke="#111111" stroke-width="2"/>
<text x="735.0" y="163.0" font-size="13.5" font-weight="700" fill="#111111" text-anchor="middle">ReservationLine</text>
<text x="735.0" y="180.0" font-size="11.5" fill="#555555" text-anchor="middle">productCode + quantity</text>
<rect x="620" y="200" width="230" height="40" rx="9" fill="#ffffff" stroke="#111111" stroke-width="2"/>
<text x="735.0" y="218.0" font-size="13.5" font-weight="700" fill="#111111" text-anchor="middle">ReservationId</text>
<text x="735.0" y="235.0" font-size="11.5" fill="#555555" text-anchor="middle">res_xxx</text>
<path d="M240,110 L330,140" fill="none" stroke="#0e7490" stroke-width="2" marker-end="url(#am)"/>
<path d="M240,165 L330,155" fill="none" stroke="#555" stroke-width="2" marker-end="url(#a)"/>
<path d="M240,220 L330,170" fill="none" stroke="#555" stroke-width="2" marker-end="url(#a)"/>
<path d="M530,135 L620,110" fill="none" stroke="#0e7490" stroke-width="2" marker-end="url(#am)"/>
<path d="M530,150 L620,165" fill="none" stroke="#555" stroke-width="2" marker-end="url(#a)"/>
<path d="M530,170 L620,220" fill="none" stroke="#555" stroke-width="2" marker-end="url(#a)"/>
<text x="440" y="30" font-size="14" fill="#333" text-anchor="middle" font-weight="700">Anti-Corruption Layer — Vocabulary Translation</text>
<text x="430" y="210" font-size="11" fill="#888" text-anchor="middle">translates</text>
</svg>