<svg xmlns="http://www.w3.org/2000/svg" viewBox="0 0 900 380" font-family="'Inter', system-ui, sans-serif" role="img">
<defs><marker id="a" viewBox="0 0 10 10" refX="8.5" refY="5" markerWidth="9" markerHeight="9" orient="auto-start-reverse"><path d="M0,0 L10,5 L0,10 z" fill="#555"/></marker><marker id="am" viewBox="0 0 10 10" refX="8.5" refY="5" markerWidth="9" markerHeight="9" orient="auto-start-reverse"><path d="M0,0 L10,5 L0,10 z" fill="#0e7490"/></marker></defs>
<rect x="10" y="50" width="180" height="310" rx="12" fill="#ecfeff" stroke="#ddd"/>
<text x="22" y="70" font-size="12" font-weight="700" fill="#888">Application Services</text>
<rect x="260" y="50" width="190" height="310" rx="12" fill="#fafafa" stroke="#ddd"/>
<text x="272" y="70" font-size="12" font-weight="700" fill="#888">Collection</text>
<rect x="510" y="50" width="190" height="310" rx="12" fill="#f0fdf4" stroke="#ddd"/>
<text x="522" y="70" font-size="12" font-weight="700" fill="#888">Storage</text>
<rect x="740" y="50" width="150" height="310" rx="12" fill="#fff8ef" stroke="#ddd"/>
<text x="752" y="70" font-size="12" font-weight="700" fill="#888">Visualization</text>
<rect x="30" y="80" width="140" height="40" rx="9" fill="#ecfeff" stroke="#0891b2" stroke-width="2"/>
<text x="100.0" y="105.5" font-size="13.5" font-weight="700" fill="#111111" text-anchor="middle">Order :8080</text>
<rect x="30" y="130" width="140" height="40" rx="9" fill="#ffffff" stroke="#111111" stroke-width="2"/>
<text x="100.0" y="155.5" font-size="13.5" font-weight="700" fill="#111111" text-anchor="middle">Inventory :8081</text>
<rect x="30" y="180" width="140" height="40" rx="9" fill="#ffffff" stroke="#111111" stroke-width="2"/>
<text x="100.0" y="205.5" font-size="13.5" font-weight="700" fill="#111111" text-anchor="middle">Payment :8082</text>
<rect x="30" y="230" width="140" height="40" rx="9" fill="#ffffff" stroke="#111111" stroke-width="2"/>
<text x="100.0" y="255.5" font-size="13.5" font-weight="700" fill="#111111" text-anchor="middle">Shipping :8083</text>
<rect x="30" y="280" width="140" height="40" rx="9" fill="#ffffff" stroke="#111111" stroke-width="2"/>
<text x="100.0" y="305.5" font-size="13.5" font-weight="700" fill="#111111" text-anchor="middle">Notification :8084</text>
<rect x="280" y="140" width="150" height="80" rx="9" fill="#111111" stroke="#111111" stroke-width="2"/>
<text x="355.0" y="170.5" font-size="13.5" font-weight="700" fill="#ffffff" text-anchor="middle">OTel Collector</text>
<text x="355.0" y="187.5" font-size="11.5" fill="#dddddd" text-anchor="middle">:4317 gRPC</text>
<text x="355.0" y="202.5" font-size="11.5" fill="#dddddd" text-anchor="middle">:4318 HTTP</text>
<rect x="530" y="80" width="150" height="50" rx="9" fill="#ffffff" stroke="#111111" stroke-width="2"/>
<text x="605.0" y="103.0" font-size="13.5" font-weight="700" fill="#111111" text-anchor="middle">Tempo</text>
<text x="605.0" y="120.0" font-size="11.5" fill="#555555" text-anchor="middle">traces :3200</text>
<rect x="530" y="170" width="150" height="50" rx="9" fill="#ffffff" stroke="#111111" stroke-width="2"/>
<text x="605.0" y="193.0" font-size="13.5" font-weight="700" fill="#111111" text-anchor="middle">Prometheus</text>
<text x="605.0" y="210.0" font-size="11.5" fill="#555555" text-anchor="middle">metrics :9090</text>
<rect x="530" y="260" width="150" height="50" rx="9" fill="#ffffff" stroke="#111111" stroke-width="2"/>
<text x="605.0" y="283.0" font-size="13.5" font-weight="700" fill="#111111" text-anchor="middle">Loki</text>
<text x="605.0" y="300.0" font-size="11.5" fill="#555555" text-anchor="middle">logs :3100</text>
<rect x="760" y="160" width="110" height="60" rx="9" fill="#ecfeff" stroke="#0891b2" stroke-width="2"/>
<text x="815.0" y="188.0" font-size="13.5" font-weight="700" fill="#111111" text-anchor="middle">Grafana</text>
<text x="815.0" y="205.0" font-size="11.5" fill="#555555" text-anchor="middle">:3000</text>
<path d="M170,100 L280,165" fill="none" stroke="#0e7490" stroke-width="2" marker-end="url(#am)"/>
<text x="225.0" y="120.5" font-size="11" fill="#ffffff" stroke="#ffffff" stroke-width="3" paint-order="stroke" text-anchor="middle">OTLP</text>
<text x="225.0" y="120.5" font-size="11" fill="#0e7490" text-anchor="middle">OTLP</text>
<path d="M170,150 L280,170" fill="none" stroke="#555" stroke-width="2" marker-end="url(#a)"/>
<path d="M170,200 L280,180" fill="none" stroke="#555" stroke-width="2" marker-end="url(#a)"/>
<path d="M170,250 L280,190" fill="none" stroke="#555" stroke-width="2" marker-end="url(#a)"/>
<path d="M170,300 L280,200" fill="none" stroke="#555" stroke-width="2" marker-end="url(#a)"/>
<path d="M430,160 L530,105" fill="none" stroke="#555" stroke-width="2" marker-end="url(#a)"/>
<path d="M430,180 L530,195" fill="none" stroke="#555" stroke-width="2" marker-end="url(#a)"/>
<path d="M430,200 L530,285" fill="none" stroke="#555" stroke-width="2" marker-end="url(#a)"/>
<path d="M680,105 L760,175" fill="none" stroke="#555" stroke-width="2" marker-end="url(#a)"/>
<path d="M680,195 L760,190" fill="none" stroke="#555" stroke-width="2" marker-end="url(#a)"/>
<path d="M680,285 L760,205" fill="none" stroke="#555" stroke-width="2" marker-end="url(#a)"/>
<text x="450" y="30" font-size="14" fill="#333" text-anchor="middle" font-weight="700">OpenTelemetry Pipeline</text>
</svg>